<svg width="48" height="48" viewBox="0 0 48 48" fill="none" xmlns="http://www.w3.org/2000/svg">
<path d="M38 12H10C6.6863 12 4 14.6863 4 18V23.4417L17.6748 28H30.3252L44 23.4417V18C44 14.6863 41.3137 12 38 12Z" fill="#00A54F" fill-opacity="0.4"/>
<path d="M20 12V10H28V12H32V10C31.9975 7.7919 30.2081 6.00252 28 6H20C17.7919 6.00252 16.0025 7.7919 16 10V12H20ZM17.6748 28L4 23.4417V36C4.00362 39.3122 6.68778 41.9964 10 42H38C41.3122 41.9964 43.9964 39.3122 44 36V23.4417L30.3252 28H17.6748Z" fill="#00A54F"/>
</svg>
