<svg width="48" height="48" viewBox="0 0 48 48" fill="none" xmlns="http://www.w3.org/2000/svg">
<g clip-path="url(#clip0_8_614)">
<path d="M42 48C42 43.7565 40.2089 39.6869 37.0208 36.6863C33.8327 33.6857 29.5087 32 25 32C20.4913 32 16.1673 33.6857 12.9792 36.6863C9.79107 39.6869 8 43.7565 8 48" fill="#85C7A5"/>
<path d="M42 48C42 43.7565 40.2089 39.6869 37.0208 36.6863C33.8327 33.6857 29.5087 32 25 32C20.4913 32 16.1673 33.6857 12.9792 36.6863C9.79107 39.6869 8 43.7565 8 48" stroke="#85C7A5" stroke-width="2" stroke-linecap="round" stroke-linejoin="round"/>
<path d="M25 32C29.9706 32 34 27.9706 34 23C34 18.0294 29.9706 14 25 14C20.0294 14 16 18.0294 16 23C16 27.9706 20.0294 32 25 32Z" fill="#85C7A5" stroke="#85C7A5" stroke-width="2" stroke-linecap="round" stroke-linejoin="round"/>
<path d="M44 48C44 45.3478 42.9464 42.8043 41.0711 40.9289C39.1957 39.0536 36.6522 38 34 38C31.3478 38 28.8043 39.0536 26.9289 40.9289C25.0536 42.8043 24 45.3478 24 48" fill="#00A54F"/>
<path d="M44 48C44 45.3478 42.9464 42.8043 41.0711 40.9289C39.1957 39.0536 36.6522 38 34 38C31.3478 38 28.8043 39.0536 26.9289 40.9289C25.0536 42.8043 24 45.3478 24 48" stroke="#00A54F" stroke-width="2" stroke-linecap="round" stroke-linejoin="round"/>
<path d="M35 38C37.7614 38 40 35.7614 40 33C40 30.2386 37.7614 28 35 28C32.2386 28 30 30.2386 30 33C30 35.7614 32.2386 38 35 38Z" fill="#00A54F" stroke="#00A54F" stroke-width="2" stroke-linecap="round" stroke-linejoin="round"/>
<path d="M24 48C24 45.3478 22.9464 42.8043 21.0711 40.9289C19.1957 39.0536 16.6522 38 14 38C11.3478 38 8.8043 39.0536 6.92893 40.9289C5.05357 42.8043 4 45.3478 4 48" fill="#00A54F"/>
<path d="M24 48C24 45.3478 22.9464 42.8043 21.0711 40.9289C19.1957 39.0536 16.6522 38 14 38C11.3478 38 8.8043 39.0536 6.92893 40.9289C5.05357 42.8043 4 45.3478 4 48" stroke="#00A54F" stroke-width="2" stroke-linecap="round" stroke-linejoin="round"/>
<path d="M13 38C15.7614 38 18 35.7614 18 33C18 30.2386 15.7614 28 13 28C10.2386 28 8 30.2386 8 33C8 35.7614 10.2386 38 13 38Z" fill="#00A54F" stroke="#00A54F" stroke-width="2" stroke-linecap="round" stroke-linejoin="round"/>
</g>
<defs>
<clipPath id="clip0_8_614">
<rect width="48" height="48" fill="white"/>
</clipPath>
</defs>
</svg>
