<svg width="48" height="48" viewBox="0 0 48 48" fill="none" xmlns="http://www.w3.org/2000/svg">
<path d="M42 42H6V44C6 45.105 6.895 46 8 46H40C41.105 46 42 45.105 42 44V42Z" fill="#00A54F" fill-opacity="0.4"/>
<path d="M42 42H6V23L24 6L42 23V42Z" fill="#00A54F" fill-opacity="0.4"/>
<path d="M13 28H23C23.552 28 24 28.448 24 29V46H12V29C12 28.448 12.448 28 13 28Z" fill="#00A54F"/>
<path opacity="0.05" d="M24 7C23.526 7 23.052 7.168 22.674 7.503L17.315 12.314L6 23V28.39L24 12.428L42 28.39V23L30.685 12.314L25.326 7.503C24.948 7.168 24.474 7 24 7Z" fill="black"/>
<path opacity="0.07" d="M24 6C23.526 6 23.052 6.167 22.674 6.5L17.315 11.284L6 21.909V27.268L24 11.397L42 27.268V21.909L30.685 11.284L25.326 6.5C24.948 6.167 24.474 6 24 6Z" fill="black"/>
<path d="M44.495 22.507L25.326 5.503C24.9481 5.168 24.4741 5 24 5C23.5261 5 23.052 5.168 22.674 5.503L3.50505 22.507C3.08505 22.881 3.05605 23.527 3.44105 23.937L5.07705 25.682C5.44605 26.076 6.06105 26.106 6.46705 25.749L24 10.428L41.5331 25.75C41.9381 26.106 42.5541 26.077 42.923 25.683L44.559 23.938C44.944 23.527 44.9151 22.881 44.495 22.507Z" fill="#00A54F"/>
<path d="M29 28H35C35.552 28 36 28.448 36 29V35C36 35.552 35.552 36 35 36H29C28.448 36 28 35.552 28 35V29C28 28.448 28.448 28 29 28Z" fill="#00A54F"/>
</svg>
