<svg width="65" height="65" viewBox="0 0 65 65" fill="none" xmlns="http://www.w3.org/2000/svg">
<path d="M24.2798 21.6392C24.2798 16.999 27.9487 13.2285 32.4556 13.2285C36.9624 13.2285 40.6313 17.0054 40.6313 21.6392C40.6313 26.2793 36.9624 30.0498 32.4556 30.0498C27.9487 30.0498 24.2798 26.2729 24.2798 21.6392ZM32.4556 44.4907C27.1426 44.4907 22.8389 47.7217 22.8389 51.7017H42.0786C42.0723 47.7217 37.7686 44.4907 32.4556 44.4907ZM32.7285 42.1104L40.2314 32.9824C37.7876 32.6587 34.4614 32.4746 32.4556 32.4746C29.834 32.4746 24.9526 32.7793 22.7437 33.3188C21.8296 33.541 21.0234 34.0679 20.395 34.7725L15.9326 42.4912L14.0601 44.5923C12.9365 45.8555 12.9365 47.9248 14.0601 49.188L16.2944 51.6953H20.4331C20.4331 46.395 25.8286 42.0786 32.4619 42.0786C32.5508 42.085 32.6333 42.1104 32.7285 42.1104ZM50.8511 44.5986L48.9785 42.4976L44.5098 34.7788C44.0464 34.2583 43.4624 33.8838 42.8276 33.6045L35.5596 42.4595C40.6821 43.564 44.4844 47.271 44.4844 51.708H48.6231L50.8574 49.2007C51.9746 47.9248 51.9746 45.8618 50.8511 44.5986Z" fill="#00A54F" fill-opacity="0.4"/>
<path d="M22.8389 51.7017C22.8389 47.7217 27.1426 44.4907 32.4556 44.4907C37.7686 44.4907 42.0723 47.7217 42.0786 51.7017H22.8389Z" fill="#00A54F"/>
</svg>
