<svg width="48" height="48" viewBox="0 0 48 48" fill="none" xmlns="http://www.w3.org/2000/svg">
<path d="M35.4731 29.2438L30.6211 33.7051C28.1263 35.88 25.1951 37.496 22.0242 38.4448L23.3116 44.4512C23.3773 44.7579 23.5143 45.0448 23.7114 45.2888C23.9085 45.5328 24.1602 45.727 24.4462 45.8558C24.7322 45.9846 25.0445 46.0443 25.3578 46.0302C25.6712 46.016 25.9768 45.9284 26.25 45.7744L34.0606 41.3691C35.1599 40.7012 36.0186 39.7013 36.5128 38.5138C37.0071 37.3262 37.1114 36.0124 36.8106 34.7617L35.4731 29.2438ZM14.5312 17.5518L18.7086 12.592L13.499 11.335C12.2325 10.8934 10.849 10.925 9.60393 11.424C8.35889 11.923 7.3365 12.8557 6.72558 14.0498L2.3252 21.8496C2.17102 22.1228 2.08327 22.4284 2.06905 22.7418C2.05484 23.0552 2.11455 23.3676 2.24336 23.6536C2.37217 23.9396 2.56647 24.1914 2.81056 24.3884C3.05465 24.5855 3.34167 24.7224 3.64844 24.788L9.79394 26.1054C10.8128 22.978 12.4208 20.0746 14.5312 17.5518ZM33.4675 17.6325C34.0608 17.6325 34.6408 17.4566 35.1342 17.1269C35.6275 16.7973 36.012 16.3287 36.2391 15.7806C36.4662 15.2324 36.5256 14.6292 36.4098 14.0472C36.2941 13.4653 36.0083 12.9308 35.5888 12.5112C35.1692 12.0916 34.6347 11.8059 34.0527 11.6902C33.4708 11.5744 32.8676 11.6338 32.3194 11.8609C31.7712 12.0879 31.3027 12.4725 30.9731 12.9658C30.6434 13.4592 30.4675 14.0392 30.4675 14.6325C30.4678 15.4281 30.7839 16.191 31.3465 16.7535C31.909 17.3161 32.6719 17.6322 33.4675 17.6325Z" fill="#00A54F"/>
<path d="M45.2021 4.124C45.1119 3.78144 44.9324 3.46896 44.6819 3.21848C44.4314 2.96799 44.1189 2.78846 43.7764 2.69822C39.6736 1.63175 35.3531 1.74611 31.3125 3.02811C27.272 4.31012 23.6759 6.70761 20.9385 9.94434L14.5312 17.5518C11.3305 21.3694 9.29993 26.03 8.6836 30.9736C8.64407 31.2775 8.67485 31.5863 8.77356 31.8763C8.87227 32.1664 9.03627 32.4298 9.25292 32.6465L15.4531 38.8467C15.6388 39.0325 15.8592 39.1798 16.1018 39.2804C16.3444 39.3809 16.6045 39.4327 16.8671 39.4327C16.9247 39.4327 16.9824 39.4297 17.041 39.4249C22.0605 39.0101 26.8173 37.0066 30.621 33.7051L37.9471 26.9688C41.1953 24.2386 43.6016 20.6422 44.8859 16.598C46.1703 12.5538 46.2799 8.22807 45.2021 4.124ZM33.4674 17.6324C32.8741 17.6324 32.294 17.4565 31.8007 17.1268C31.3073 16.7972 30.9228 16.3287 30.6958 15.7805C30.4687 15.2323 30.4093 14.6291 30.525 14.0472C30.6408 13.4652 30.9265 12.9307 31.3461 12.5111C31.7656 12.0916 32.3002 11.8058 32.8821 11.6901C33.4641 11.5743 34.0673 11.6337 34.6154 11.8608C35.1636 12.0879 35.6322 12.4724 35.9618 12.9657C36.2915 13.4591 36.4674 14.0391 36.4674 14.6324C36.4671 15.428 36.151 16.1909 35.5884 16.7534C35.0259 17.316 34.263 17.6322 33.4674 17.6324Z" fill="#00A54F" fill-opacity="0.4"/>
</svg>
