<svg width="40" height="40" viewBox="0 0 40 40" fill="none" xmlns="http://www.w3.org/2000/svg">
<path d="M23.7178 3.24329C20.0356 3.24484 16.8799 5.87621 16.2162 9.49842C19.3856 7.76387 23.361 8.92732 25.0954 12.0971C26.1661 14.0539 26.1661 16.4215 25.0954 18.3784C29.24 17.6191 31.9843 13.6434 31.2251 9.49848C30.5612 5.87402 27.4022 3.24189 23.7178 3.24329Z" fill="#00A54F" fill-opacity="0.12"/>
<path d="M24.3244 16.2162C18.0552 16.2162 12.973 21.2984 12.973 27.5675H35.6757C35.6757 21.2984 30.5936 16.2162 24.3244 16.2162Z" fill="#E0F4EA"/>
<path d="M19.4595 20.5405C14.0859 20.5405 9.72974 24.8967 9.72974 30.2703H29.1892C29.1892 24.8967 24.833 20.5405 19.4595 20.5405Z" fill="#99DBB9"/>
<path d="M15.1351 24.8649C18.1205 24.8649 20.5405 22.4448 20.5405 19.4595C20.5405 16.4742 18.1205 14.0541 15.1351 14.0541C12.1498 14.0541 9.72974 16.4742 9.72974 19.4595C9.72974 22.4448 12.1498 24.8649 15.1351 24.8649Z" fill="#00A54F"/>
<path d="M19.4429 8.64868C16.1013 8.64902 13.304 11.1821 12.973 14.5075C15.7211 13.3267 18.9061 14.5974 20.0868 17.3457C20.6732 18.7107 20.6732 20.2566 20.0868 21.6217C23.6602 21.2663 26.2689 18.0813 25.9136 14.5077C25.5829 11.1819 22.7849 8.64838 19.4429 8.64868Z" fill="#99DBB9"/>
<path d="M14.5946 23.7838C10.1166 23.7838 6.48645 27.4139 6.48645 31.8919H22.7027C22.7027 27.4139 19.0725 23.7838 14.5946 23.7838Z" fill="#00A54F"/>
</svg>
