<svg width="48" height="56" viewBox="0 0 48 56" fill="none" xmlns="http://www.w3.org/2000/svg">
<path d="M12.8 37.1892C12.8 35.8141 11.9304 34.6715 10.8 34.4474C9.66958 34.6715 8.80005 35.8141 8.80005 37.1892C8.80005 38.5643 9.66967 39.7069 10.8 39.931C11.9305 39.707 12.8 38.5643 12.8 37.1892Z" fill="#00A54F" fill-opacity="0.4"/>
<path d="M11.2001 34.3999C11.0633 34.3999 10.9313 34.4213 10.8 34.4473C11.9305 34.6714 12.8 35.814 12.8 37.1891C12.8 38.5642 11.9304 39.7068 10.8 39.9309C10.9312 39.9569 11.0632 39.9783 11.2001 39.9783C12.5201 39.9783 13.6001 38.7231 13.6001 37.1891C13.6001 35.655 12.5201 34.3999 11.2001 34.3999Z" fill="#00A54F" fill-opacity="0.4"/>
<path d="M38.4 37.1892C38.4 35.8141 37.5303 34.6715 36.4 34.4474C35.2696 34.6715 34.4 35.8141 34.4 37.1892C34.4 38.5643 35.2697 39.7069 36.4 39.931C37.5303 39.707 38.4 38.5643 38.4 37.1892Z" fill="#00A54F" fill-opacity="0.4"/>
<path d="M36.8001 34.3999C36.6633 34.3999 36.5313 34.4213 36.4 34.4473C37.5305 34.6714 38.4 35.814 38.4 37.1891C38.4 38.5642 37.5304 39.7068 36.4 39.9309C36.5312 39.9569 36.6632 39.9783 36.8001 39.9783C38.1201 39.9783 39.2001 38.7231 39.2001 37.1891C39.2001 35.655 38.1201 34.3999 36.8001 34.3999Z" fill="#00A54F" fill-opacity="0.4"/>
<path d="M17.6 15.8054V23.2432H6.33606L7.45609 21.3838H16.0001V15.8054H17.6Z" fill="#00A54F" fill-opacity="0.4"/>
<path d="M43.8127 35.3297C43.8719 35.6347 43.9223 35.9433 43.952 36.2594C43.9223 35.9433 43.8727 35.6347 43.8127 35.3297Z" fill="#00A54F"/>
<path d="M18.2128 35.3297C18.2719 35.6347 18.3224 35.9433 18.352 36.2594C18.3224 35.9433 18.2728 35.6347 18.2128 35.3297Z" fill="#00A54F"/>
<path d="M36.8 32.5405C34.592 32.5405 32.7999 34.6232 32.7999 37.1892C32.7999 39.7553 34.592 41.8378 36.8 41.8378C39.008 41.8378 40.8 39.7552 40.8 37.1891C40.8 34.6231 39.008 32.5405 36.8 32.5405ZM36.8 39.9783C35.48 39.9783 34.4 38.7232 34.4 37.1891C34.4 35.6551 35.48 34.3999 36.8 34.3999C38.12 34.3999 39.2 35.6551 39.2 37.1891C39.2 38.7232 38.12 39.9783 36.8 39.9783Z" fill="#00A54F" fill-opacity="0.4"/>
<path d="M16.0001 15.8054V21.3838H7.45605L10.8161 15.8054H16.0001Z" fill="#00A54F" fill-opacity="0.4"/>
<path d="M11.2 32.5405C8.99198 32.5405 7.19995 34.6232 7.19995 37.1892C7.19995 39.7553 8.99198 41.8378 11.2 41.8378C13.408 41.8378 15.2 39.7552 15.2 37.1891C15.2 34.6231 13.408 32.5405 11.2 32.5405ZM11.2 39.9783C9.87998 39.9783 8.79998 38.7232 8.79998 37.1891C8.79998 35.6551 9.87998 34.3999 11.2 34.3999C12.52 34.3999 13.6 35.6551 13.6 37.1891C13.6 38.7232 12.52 39.9783 11.2 39.9783Z" fill="#00A54F" fill-opacity="0.4"/>
<path d="M46.4 32.9217L45.832 32.2709C45.688 32.0943 45.5999 31.8618 45.5999 31.6108V29.7513H44.8C44.36 29.7513 44 29.3329 44 28.8216C44 28.3102 44.36 27.8919 44.8 27.8919H45.5999V15.8054H19.2V24.173C19.2 24.6843 18.84 25.1027 18.4001 25.1027H5.08804C4.26407 25.9208 3.60801 26.7855 3.14404 27.8919H4.00007C4.44004 27.8919 4.80004 28.3102 4.80004 28.8216C4.80004 29.3329 4.44004 29.7513 4.00007 29.7513H2.60807C2.5041 30.3277 2.42404 30.9506 2.40004 31.6572C2.39207 31.8803 2.30404 32.1034 2.16801 32.2708L1.59998 32.9216V34.0186L1.93598 34.3998H3.12004C3.12004 34.3998 3.89601 34.3998 4.41604 34.3998C5.40801 31.1551 8.08007 28.8215 11.2001 28.8215C14.3201 28.8215 16.992 31.1551 17.9841 34.3998H29.3601C29.3601 34.3998 29.7121 34.3998 30.0161 34.3998C31.008 31.1551 33.6801 28.8215 36.8001 28.8215C39.9201 28.8215 42.5921 31.1551 43.5841 34.3998H46.0641L46.4001 34.0186L46.4 32.9217Z" fill="#00A54F"/>
<path d="M1.93604 34.3999L2.16807 34.6696C2.31207 34.8462 2.4001 35.0787 2.4001 35.3297V36.2594H4.04813C4.1041 35.6179 4.23216 34.9856 4.4161 34.3999C3.89607 34.3999 3.1201 34.3999 3.1201 34.3999H1.93604Z" fill="#00A54F"/>
<path d="M17.984 34.3999C18.08 34.7067 18.16 35.0414 18.224 35.3761C18.24 35.4598 18.256 35.5342 18.264 35.6179C18.3041 35.8318 18.336 36.0455 18.3521 36.2594H29.6481C29.7041 35.6179 29.8321 34.9856 30.0161 34.3999C29.712 34.3999 29.3601 34.3999 29.3601 34.3999H17.984Z" fill="#00A54F"/>
<path d="M43.824 35.3761C43.84 35.4598 43.856 35.5342 43.864 35.6179C43.9041 35.8318 43.936 36.0455 43.9521 36.2594H45.6V35.3297C45.6 35.0787 45.688 34.8463 45.832 34.6696L46.0641 34.3999H43.5841C43.68 34.7067 43.76 35.0414 43.824 35.3761Z" fill="#00A54F"/>
<path d="M47.768 31.8804L47.1999 31.2296V14.8756C47.1999 14.3643 46.8399 13.9459 46.4 13.9459H10.4C10.136 13.9459 9.89597 14.0946 9.744 14.3457L4.20797 23.5314C2.57597 25.1119 1.06397 27.148 0.816 31.2016L0.232031 31.8803C0.0880312 32.057 0 32.2895 0 32.5406V34.4001C0 34.6511 0.0880312 34.8835 0.232031 35.0602L0.800062 35.711V37.1892C0.800062 37.7006 1.16006 38.1189 1.60003 38.1189H4.8C5.23997 38.1189 5.59997 37.7006 5.59997 37.1892C5.59997 33.6004 8.112 30.6812 11.1999 30.6812C14.2879 30.6812 16.7999 33.6006 16.7999 37.1892C16.7999 37.7006 17.1599 38.1189 17.5999 38.1189H30.3998C30.8398 38.1189 31.1998 37.7006 31.1998 37.1892C31.1998 33.6004 33.7118 30.6812 36.7998 30.6812C39.8877 30.6812 42.3997 33.6006 42.3997 37.1892C42.3997 37.7006 42.7597 38.1189 43.1997 38.1189H46.3997C46.8397 38.1189 47.1997 37.7006 47.1997 37.1892V35.711L47.7677 35.0602C47.9117 34.8836 47.9997 34.6511 47.9997 34.4001V32.5406C48 32.2895 47.912 32.057 47.768 31.8804ZM7.45603 21.3838L10.816 15.8054H17.6001V23.2433H6.336L7.45603 21.3838ZM46.4 34.0188L46.064 34.4001L45.8319 34.6697C45.6879 34.8463 45.5999 35.0788 45.5999 35.3299V36.2595H43.9519C43.9358 36.0457 43.9039 35.8319 43.8638 35.618C43.8559 35.5344 43.8398 35.4599 43.8238 35.3763C43.7598 35.0416 43.6798 34.7069 43.5838 34.4001C42.5918 31.1553 39.9198 28.8217 36.7998 28.8217C33.6798 28.8217 31.0078 31.1553 30.0157 34.4001C29.8317 34.9858 29.7037 35.618 29.6478 36.2595H18.352C18.336 36.0457 18.304 35.8319 18.264 35.618C18.256 35.5344 18.24 35.4599 18.224 35.3763C18.1599 35.0416 18.08 34.7069 17.984 34.4001C16.992 31.1553 14.3199 28.8217 11.1999 28.8217C8.07994 28.8217 5.40797 31.1553 4.41591 34.4001C4.23187 34.9858 4.10391 35.618 4.04794 36.2595H2.4V35.3299C2.4 35.0788 2.31197 34.8464 2.16797 34.6697L1.93594 34.4001L1.59994 34.0188V32.9218L2.16797 32.271C2.304 32.1037 2.39194 31.8805 2.4 31.6574C2.424 30.9508 2.50397 30.3278 2.60803 29.7515H4.00003C4.44 29.7515 4.8 29.3331 4.8 28.8218C4.8 28.3105 4.44 27.8919 4.00003 27.8919H3.144C3.60797 26.7855 4.26403 25.9208 5.088 25.1027H18.4C18.84 25.1027 19.2 24.6843 19.2 24.173V15.8054H45.6V27.8919H44.8C44.3601 27.8919 44.0001 28.3102 44.0001 28.8216C44.0001 29.3329 44.3601 29.7513 44.8 29.7513H45.6V31.6108C45.6 31.8618 45.688 32.0942 45.832 32.2709L46.4001 32.9217L46.4 34.0188Z" fill="#00A54F"/>
</svg>
