<svg width="48" height="48" viewBox="0 0 48 48" fill="none" xmlns="http://www.w3.org/2000/svg">
<path d="M30 4C23.2456 4.00284 17.4569 8.82924 16.2395 15.473C22.0534 12.2915 29.3455 14.4255 32.527 20.2394C34.4911 23.8286 34.4911 28.1712 32.527 31.7605C40.1296 30.3678 45.1637 23.0757 43.771 15.4731C42.5532 8.82522 36.7585 3.99744 30 4Z" fill="#00A54F" fill-opacity="0.12"/>
<path d="M14 44C19.5228 44 24 39.5228 24 34C24 28.4772 19.5228 24 14 24C8.47715 24 4 28.4772 4 34C4 39.5228 8.47715 44 14 44Z" fill="#00A54F"/>
<path d="M22 14C15.8332 14.0006 10.6708 18.6752 10.06 24.8116C15.1316 22.6327 21.0094 24.9776 23.1884 30.0492C24.2706 32.5681 24.2706 35.421 23.1884 37.94C29.7829 37.2843 34.5974 31.4067 33.9416 24.8122C33.3314 18.6747 28.1677 13.9994 22 14Z" fill="#00A54F" fill-opacity="0.4"/>
</svg>
