<svg width="47" height="35" viewBox="0 0 47 35" fill="none" xmlns="http://www.w3.org/2000/svg">
<circle cx="11.5" cy="26.5" r="4.5" fill="#00A54F"/>
<circle cx="35.5" cy="26.5" r="4.5" fill="#00A54F"/>
<rect x="11" y="2" width="24" height="9" fill="#00A54F"/>
<path d="M39.95 11.6667H39.198L36.2605 4.38669C35.7359 3.09229 34.8336 1.98309 33.6696 1.20147C32.5055 0.419848 31.1327 0.00146698 29.7275 2.86947e-05H15.6275C13.9949 -0.00461077 12.4113 0.553474 11.147 1.57902C9.88272 2.60457 9.01607 4.03401 8.695 5.62336L7.473 11.6667H7.05C5.18022 11.6667 3.38703 12.4042 2.0649 13.7169C0.742766 15.0297 0 16.8102 0 18.6667V25.6667C0 26.2855 0.247588 26.879 0.688299 27.3166C1.12901 27.7542 1.72674 28 2.35 28H4.7C4.7 29.8565 5.44277 31.637 6.7649 32.9498C8.08703 34.2625 9.88022 35 11.75 35C13.6198 35 15.413 34.2625 16.7351 32.9498C18.0572 31.637 18.8 29.8565 18.8 28H28.2C28.2 29.8565 28.9428 31.637 30.2649 32.9498C31.587 34.2625 33.3802 35 35.25 35C37.1198 35 38.913 34.2625 40.2351 32.9498C41.5572 31.637 42.3 29.8565 42.3 28H44.65C45.2733 28 45.871 27.7542 46.3117 27.3166C46.7524 26.879 47 26.2855 47 25.6667V18.6667C47 16.8102 46.2572 15.0297 44.9351 13.7169C43.613 12.4042 41.8198 11.6667 39.95 11.6667ZM25.85 4.66669H29.7275C30.1941 4.67088 30.649 4.81293 31.034 5.07473C31.419 5.33652 31.7169 5.70621 31.8895 6.13669L34.122 11.6667H25.85V4.66669ZM13.301 6.53336C13.4109 5.99838 13.7062 5.5186 14.1356 5.17752C14.565 4.83645 15.1012 4.65568 15.651 4.66669H21.15V11.6667H12.267L13.301 6.53336ZM11.75 30.3333C11.2852 30.3333 10.8309 30.1965 10.4444 29.9401C10.058 29.6837 9.75675 29.3193 9.57888 28.8929C9.40102 28.4666 9.35448 27.9974 9.44515 27.5448C9.53583 27.0922 9.75965 26.6764 10.0883 26.3501C10.417 26.0238 10.8357 25.8015 11.2915 25.7115C11.7474 25.6215 12.2199 25.6677 12.6493 25.8443C13.0787 26.0209 13.4457 26.32 13.704 26.7037C13.9622 27.0874 14.1 27.5385 14.1 28C14.1 28.6188 13.8524 29.2123 13.4117 29.6499C12.971 30.0875 12.3733 30.3333 11.75 30.3333ZM35.25 30.3333C34.7852 30.3333 34.3309 30.1965 33.9444 29.9401C33.558 29.6837 33.2567 29.3193 33.0789 28.8929C32.901 28.4666 32.8545 27.9974 32.9452 27.5448C33.0358 27.0922 33.2596 26.6764 33.5883 26.3501C33.917 26.0238 34.3357 25.8015 34.7915 25.7115C35.2474 25.6215 35.7199 25.6677 36.1493 25.8443C36.5787 26.0209 36.9457 26.32 37.204 26.7037C37.4622 27.0874 37.6 27.5385 37.6 28C37.6 28.6188 37.3524 29.2123 36.9117 29.6499C36.471 30.0875 35.8733 30.3333 35.25 30.3333Z" fill="#98DAB7"/>
</svg>
